<svg id="Isolation_Mode" data-name="Isolation Mode" xmlns="http://www.w3.org/2000/svg" viewBox="0 0 40.07 48"><defs><style>.cls-1{fill:#1a171b;}</style></defs><title>female</title><path class="cls-1" d="M150.44,109.76c-.59-.3-1.2-.58-1.84-.86a22.77,22.77,0,0,0,2.54-10.46c0-12.25-6.57-20.17-16.73-20.17s-16.72,7.92-16.72,20.17a22.75,22.75,0,0,0,2.53,10.48c-.63.26-1.24.54-1.82.84a7.3,7.3,0,0,0-4,6.52v2a4.93,4.93,0,0,0,2.61,4.38c3.15,1.66,8.72,3.63,17.42,3.63s14.27-2,17.42-3.63a4.93,4.93,0,0,0,2.61-4.38v-2A7.3,7.3,0,0,0,150.44,109.76Zm-31.3-11.32c0-11.37,6-18.71,15.27-18.71s15.27,7.34,15.27,18.71a21.22,21.22,0,0,1-2.44,9.92c-.46-.17-.93-.33-1.41-.49-.78-.25-1.44-.44-2.05-.6-.79-.23-1.62-.43-2.48-.59a5.91,5.91,0,0,1-1.5-2.83A12.89,12.89,0,0,0,144,97.38a1.85,1.85,0,0,0,1-.45,4.2,4.2,0,0,0,1.27-2.83c.16-1.84-.6-3.36-1.85-3.7a2.25,2.25,0,0,0-1.15,0,6.07,6.07,0,0,0-2.3-3c-1.74-1.12-4-1.13-6.61,0-2.7-1.17-4.94-1.21-6.65-.11a5.84,5.84,0,0,0-2.3,3.1,2.3,2.3,0,0,0-1.13,0c-1.25.34-2,1.86-1.84,3.7a4.15,4.15,0,0,0,1.27,2.83,1.83,1.83,0,0,0,1,.45,12.8,12.8,0,0,0,4.24,6.48,6.16,6.16,0,0,1-1.5,2.91c-1.54.26-2.48.5-2.48.5-.64.16-1.29.36-2.07.61-.5.16-1,.33-1.44.5A21.48,21.48,0,0,1,119.14,98.44Zm8.9,9.72.07,0,.14,0a.94.94,0,0,0,.12-.09l.06,0a7.36,7.36,0,0,0,1.9-3.24,8.39,8.39,0,0,0,4.08,1.08,8.51,8.51,0,0,0,4.11-1.09,7.3,7.3,0,0,0,1.88,3.15l.06,0,.12.08.14,0,.06,0c.3,0,.58.11.87.18-.36,2.57-3.47,4.59-7.24,4.59s-6.81-2-7.22-4.52Zm-2.52-16.23.08,0a.62.62,0,0,0,.38.13.69.69,0,0,0,.72-.7,4.61,4.61,0,0,1,2-3c1.32-.74,3.13-.59,5.38.44a.7.7,0,0,0,.6,0c2.17-1,3.94-1.09,5.28-.37a4.73,4.73,0,0,1,2.14,3,.14.14,0,0,1,0,.07s0,0,0,.07l0,0a.5.5,0,0,0,.08.14l.07.09a.31.31,0,0,0,.11.09l.1.07.14,0,.13,0h0l.1,0h.11l.06,0h0l.15-.08a1,1,0,0,1,.8-.12c.46.12.89,1,.78,2.16a2.76,2.76,0,0,1-.75,1.84.48.48,0,0,1-.26.12s-.05,0-.07,0a.75.75,0,0,0-.62,0,.74.74,0,0,0-.4.48,11.47,11.47,0,0,1-4.13,6.53,7.07,7.07,0,0,1-8.47,0A11.48,11.48,0,0,1,126,96.38a.72.72,0,0,0-.39-.48.75.75,0,0,0-.62,0l-.07,0a.42.42,0,0,1-.27-.12,2.8,2.8,0,0,1-.75-1.84c-.1-1.18.33-2,.79-2.16A1,1,0,0,1,125.52,91.93ZM153,118.26a3.46,3.46,0,0,1-1.84,3.09c-2.45,1.3-7.9,3.47-16.74,3.47s-14.28-2.17-16.74-3.47a3.48,3.48,0,0,1-1.84-3.09v-2a5.9,5.9,0,0,1,3.22-5.23,29.72,29.72,0,0,1,4.39-1.79c.75-.24,1.38-.43,2-.58l.33-.08c.57,3.2,4.22,5.68,8.64,5.68s8.09-2.49,8.65-5.7l.33.09c.61.16,1.24.34,2,.59a29.1,29.1,0,0,1,4.39,1.79,5.88,5.88,0,0,1,3.23,5.23Z" transform="translate(-114.39 -78.27)"/></svg>