<svg id="Isolation_Mode" data-name="Isolation Mode" xmlns="http://www.w3.org/2000/svg" viewBox="0 0 40.07 48"><defs><style>.cls-1{fill:#1a171b;}</style></defs><title>user</title><path class="cls-1" d="M77.06,109.76a30.54,30.54,0,0,0-4.61-1.89c-.78-.25-1.44-.44-2-.6-.83-.24-1.67-.42-2.51-.58a5.88,5.88,0,0,1-1.47-2.84,12.81,12.81,0,0,0,4.21-6.47,1.83,1.83,0,0,0,1-.45A4.2,4.2,0,0,0,73,94.1a4.51,4.51,0,0,0-.39-2.38,12.69,12.69,0,0,0,.31-2.79c0-6.47-4.64-10.66-11.82-10.66S49.24,82.46,49.24,88.93a13.43,13.43,0,0,0,.29,2.73,4.58,4.58,0,0,0-.41,2.44,4.2,4.2,0,0,0,1.27,2.83,1.85,1.85,0,0,0,1,.45,12.72,12.72,0,0,0,4.22,6.47,6,6,0,0,1-1.56,2.94c-1.48.25-2.38.47-2.4.48-.64.16-1.3.36-2.07.61A30.12,30.12,0,0,0,45,109.76a7.32,7.32,0,0,0-4,6.52v2a4.92,4.92,0,0,0,2.62,4.38c3.14,1.66,8.72,3.63,17.42,3.63s14.27-2,17.42-3.63a4.93,4.93,0,0,0,2.61-4.38v-2A7.31,7.31,0,0,0,77.06,109.76Zm-16-30c6.4,0,10.37,3.53,10.37,9.2a11.07,11.07,0,0,1-.12,1.55l-.2-.08a2.45,2.45,0,0,0-1.1,0c-.11-.46-.29-1.15-.57-2.18,0,0,0,0,0-.05a.54.54,0,0,0-.07-.13.41.41,0,0,0-.07-.11.81.81,0,0,0-.1-.09l-.12-.08-.13,0a.32.32,0,0,0-.14,0h-.05a5.36,5.36,0,0,1-4.8-2.57.87.87,0,0,0-.08-.1.39.39,0,0,0-.08-.1,0,0,0,0,0,0,0,.67.67,0,0,0-.14-.09l-.11,0-.12,0a.76.76,0,0,0-.15,0l-.1,0a.48.48,0,0,0-.17,0h0s-.06.06-.1.08-.07,0-.1.08c-3.33,3.59-9.26,2.74-9.31,2.74a.41.41,0,0,0-.11,0H53.2l-.13,0-.13.06-.11.1-.09.09-.06.13a.93.93,0,0,0,0,.1c-.28,1-.45,1.72-.57,2.18a2.41,2.41,0,0,0-1.09,0l-.16.07a11.05,11.05,0,0,1-.11-1.54C50.7,83.26,54.67,79.73,61.06,79.73ZM52.67,96.38a.74.74,0,0,0-.4-.48.75.75,0,0,0-.62,0s0,0-.07,0a.4.4,0,0,1-.26-.12A2.8,2.8,0,0,1,50.57,94c-.11-1.18.32-2,.78-2.16a1,1,0,0,1,.8.12,1.45,1.45,0,0,0,.23.11A.69.69,0,0,0,53,92a.67.67,0,0,0,.3-.56c0-.18.28-1.2.56-2.25.32,0,.73,0,1.22,0a12.27,12.27,0,0,0,8.08-2.68,6.86,6.86,0,0,0,5,2.55c.29,1.08.56,2.14.58,2.27a.73.73,0,0,0,.3.59.72.72,0,0,0,.65.11l.23-.11a1,1,0,0,1,.8-.12c.45.12.88,1,.78,2.16a2.8,2.8,0,0,1-.75,1.84.48.48,0,0,1-.27.12l-.07,0a.72.72,0,0,0-1,.48,11.52,11.52,0,0,1-4.13,6.53,7.08,7.08,0,0,1-8.48,0A11.47,11.47,0,0,1,52.67,96.38ZM57,104.72A8.53,8.53,0,0,0,61,105.8a8.43,8.43,0,0,0,4.09-1.09,7.29,7.29,0,0,0,1.64,2.92c-.37,1.18-3.08,3.42-5.72,5.07-2.65-1.65-5.37-3.89-5.73-5.07A7.37,7.37,0,0,0,57,104.72ZM42.47,118.26v-2a5.88,5.88,0,0,1,3.22-5.23,29.59,29.59,0,0,1,4.38-1.79c.75-.24,1.38-.43,2-.58,0,0,.76-.19,2-.41.94,2.2,4.84,4.79,6.29,5.69v10.85c-8.41-.12-13.63-2.2-16-3.46A3.47,3.47,0,0,1,42.47,118.26Zm37.16,0a3.48,3.48,0,0,1-1.84,3.09c-2.39,1.26-7.61,3.34-16,3.46V114c1.47-.91,5.43-3.55,6.32-5.76.65.14,1.29.28,1.93.47s1.23.34,2,.59a28.8,28.8,0,0,1,4.4,1.79,5.88,5.88,0,0,1,3.23,5.23Z" transform="translate(-41.01 -78.27)"/></svg>